<svg xmlns="http://www.w3.org/2000/svg" xmlns:xlink="http://www.w3.org/1999/xlink" width="80" height="80" viewBox="0 0 80 80"><g><g transform="translate(40 40) scale(0.69 0.69) rotate(0) translate(-40 -40)" style="fill:#FFFFFF"><svg fill="#FFFFFF" xmlns="http://www.w3.org/2000/svg" xmlns:xlink="http://www.w3.org/1999/xlink" version="1.1" x="0px" y="0px" viewBox="0 0 100 100" enable-background="new 0 0 100 100" xml:space="preserve"><path d="M26.245,66.187c0.31-17.097,15.073-13.52,11.966-24.71c-9.123-7.259-10.881-17.875-2.798-24.868  c-0.155-7.304,6.684-11.034,6.684-11.034s4.973,4.974,4.507,9.791c4.353-1.399,11.191,3.109,12.279,4.663  c2.332-3.886,10.567-3.729,10.567-3.729s2.643,10.412-4.04,14.143c-0.933,9.013-7.735,13.508-12.123,13.833  c-0.672,7.703,11.789,11.638,10.477,25.575c8.264,4.051,11.642,10.33,6.618,16.854c-7.719,10.021-27.888,10.721-29.996,6.216  c-2.202-4.705,1.406-8.968,9.605-7.492c7.5,1.35,24.432-3.936,11.642-11.314c-3.28,4.755-7.051,7.215-15.339,7.305  C33.649,81.556,26.058,76.59,26.245,66.187z"></path></svg></g></g></svg>
